<svg version="1.0" xmlns="http://www.w3.org/2000/svg"
 width="300.000000pt" height="300.000000pt" viewBox="0 0 300.000000 300.000000"
 preserveAspectRatio="xMidYMid meet">
  <g transform="translate(0.000000,300.000000) scale(0.100000,-0.100000)"
  fill="#000000" stroke="none">
  <path d="M18 2993 c-17 -4 -18 -84 -18 -1499 l0 -1494 1500 0 1500 0 0 1494 0
  1494 -22 6 c-26 7 -2934 6 -2960 -1z m2972 -1498 l0 -1485 -1490 0 -1490 0 0
  1485 0 1485 1490 0 1490 0 0 -1485z"/>
  <path d="M267 2603 c-4 -3 -7 -116 -7 -249 0 -151 -4 -245 -10 -249 -5 -3 -10
  -22 -10 -41 l0 -35 143 7 c180 9 229 16 235 33 3 8 0 11 -6 7 -7 -4 -71 -11
  -144 -16 -73 -5 -151 -13 -172 -16 l-39 -7 6 54 c9 70 22 519 15 519 -2 0 -8
  -3 -11 -7z"/>
  <path d="M2512 2519 c-12 -12 -22 -27 -22 -31 0 -5 -25 -34 -55 -66 -30 -31
  -55 -60 -55 -64 0 -5 -6 -8 -14 -8 -7 0 -16 -11 -19 -25 -3 -16 0 -24 7 -22
  18 6 46 -50 46 -91 0 -21 5 -43 12 -50 15 -15 354 -17 363 -2 3 6 16 10 27 10
  35 0 47 29 48 116 0 78 -1 82 -40 136 -49 69 -122 108 -214 115 -56 5 -65 3
  -84 -18z m206 -30 c24 -13 59 -45 78 -71 34 -46 35 -48 32 -135 -4 -115 1
  -113 -230 -113 l-177 0 -7 47 c-4 26 -15 63 -26 81 l-18 33 32 33 c45 44 89
  96 112 130 18 28 20 29 90 23 47 -3 86 -13 114 -28z"/>
  <path d="M1172 2453 c-21 -3 -46 -18 -70 -41 -20 -20 -53 -49 -72 -63 -19 -15
  -48 -39 -65 -53 -16 -14 -39 -26 -50 -26 -15 0 -16 -3 -7 -12 7 -7 13 -41 14
  -77 l1 -66 7 55 c4 30 7 50 8 43 1 -6 11 -14 21 -18 10 -3 21 -15 24 -25 5
  -21 41 -28 52 -10 3 6 48 10 101 10 52 0 104 5 117 12 12 6 30 15 39 20 10 4
  44 8 76 8 73 0 92 17 92 82 0 71 -10 103 -40 137 -29 31 -30 31 -122 29 -51 0
  -108 -3 -126 -5z m243 -43 c29 -54 42 -142 24 -171 -4 -8 -34 -14 -76 -17 -37
  -2 -83 -10 -102 -19 -36 -16 -59 -20 -183 -27 -70 -4 -78 -2 -83 15 -4 10 -13
  19 -21 19 -9 0 -22 7 -30 15 -14 13 -12 19 19 48 18 19 51 47 73 63 21 16 56
  45 77 65 l39 36 125 -1 c122 -1 124 -2 138 -26z"/>
  <path d="M1710 2430 c0 -14 -11 -47 -25 -74 -14 -27 -25 -55 -25 -63 0 -7 -4
  -13 -10 -13 -5 0 -10 -9 -10 -20 0 -11 -4 -20 -10 -20 -5 0 -10 -20 -10 -45 0
  -39 3 -45 21 -45 12 0 29 -8 38 -17 57 -62 152 -57 214 12 14 15 18 32 15 72
  -2 29 -2 53 -1 53 1 0 21 -28 44 -62 46 -70 58 -126 59 -278 l0 -86 -102 -17
  c-57 -10 -124 -17 -150 -17 -47 0 -47 1 -58 40 -5 22 -15 59 -22 83 -11 40
  -12 40 -16 13 -2 -16 1 -33 7 -39 6 -6 11 -23 11 -37 0 -14 6 -38 13 -54 12
  -26 14 -27 77 -22 131 11 180 18 180 27 0 5 19 9 42 9 l41 0 -6 143 c-6 156
  -7 158 -82 270 -19 29 -35 59 -35 68 0 22 -34 59 -54 59 -9 0 -16 5 -16 10 0
  6 -9 10 -20 10 -26 0 -81 28 -97 49 -11 14 -12 13 -13 -9z m30 -40 c0 -5 11
  -10 24 -10 32 0 90 -34 110 -65 11 -16 16 -47 16 -91 0 -60 -3 -69 -27 -90
  -43 -37 -118 -34 -168 6 -21 17 -44 30 -51 30 -16 0 -19 46 -4 55 6 3 10 15
  10 26 0 10 5 19 10 19 6 0 10 6 10 13 0 20 51 117 61 117 5 0 9 -4 9 -10z"/>
  <path d="M1810 1511 c0 -47 4 -81 10 -81 6 0 10 31 10 74 0 41 -4 78 -10 81
  -6 4 -10 -23 -10 -74z"/>
  <path d="M1040 1496 c0 -30 5 -58 10 -61 6 -4 10 17 10 54 0 34 -4 61 -10 61
  -5 0 -10 -24 -10 -54z"/>
  <path d="M680 1026 c0 -25 29 -89 90 -201 21 -38 48 -89 60 -113 22 -41 122
  -139 172 -168 66 -38 144 -74 159 -74 10 0 21 -4 24 -10 3 -6 21 -10 39 -10
  17 0 36 -4 42 -9 16 -16 109 -23 359 -28 260 -5 288 -2 440 49 108 37 185 71
  245 112 142 96 240 245 240 366 0 71 -17 62 -23 -12 -7 -90 -15 -116 -59 -180
  -86 -125 -218 -213 -423 -280 -78 -26 -138 -31 -375 -35 -280 -4 -382 7 -511
  53 -143 52 -266 143 -317 236 -15 27 -44 79 -64 116 -58 105 -78 152 -78 183
  0 16 -4 29 -10 29 -5 0 -10 -11 -10 -24z"/>
  </g>
</svg>
